PathFileType	4	(X/Y/Z)	G:/Ayumi_testdata/vicon/updated_static_jc/static_00.trc	
DataRate	CameraRate	NumFrames	NumMarkers	Units	OrigDataRate	OrigDataStartFrame	OrigNumFrames	
200.00	200.00	4	66	mm	200.00	111	295	
Frame#	Time	LASI			RASI			RSACR			LSACR			USACR			LBAR			RBAR			RHEE			RMT1			RMT5			RMT2			LHEE			LMT1			LMT5			LMT2			LMMAL			LMFC			LLFC			LLMAL			LTIB4			LTIB2			LTIB3			LTIB1			RMMAL			RMFC			RLFC			RLMAL			RTIB1			RTIB2			RTIB3			RTHI1			RTHI4			RTHI3			RTHI2			LTHI1			LTHI4			LTHI3			LTHI2			FHD			LBHD			RBHD			C7			T10			CLAV			LSHO			RSHO			LRAD			LUL			LRFIN			RRAD			RUL			RUFIN			RLEP			RMEP			LLEP			LMEP			LDUPA			LMUPA			LUUPA			RDUPA			RUUPA			RMUPA			RKJC			LKJC			LAKJC			RAKJC			
		X1	Y1	Z1	X2	Y2	Z2	X3	Y3	Z3	X4	Y4	Z4	X5	Y5	Z5	X6	Y6	Z6	X7	Y7	Z7	X8	Y8	Z8	X9	Y9	Z9	X10	Y10	Z10	X11	Y11	Z11	X12	Y12	Z12	X13	Y13	Z13	X14	Y14	Z14	X15	Y15	Z15	X16	Y16	Z16	X17	Y17	Z17	X18	Y18	Z18	X19	Y19	Z19	X20	Y20	Z20	X21	Y21	Z21	X22	Y22	Z22	X23	Y23	Z23	X24	Y24	Z24	X25	Y25	Z25	X26	Y26	Z26	X27	Y27	Z27	X28	Y28	Z28	X29	Y29	Z29	X30	Y30	Z30	X31	Y31	Z31	X32	Y32	Z32	X33	Y33	Z33	X34	Y34	Z34	X35	Y35	Z35	X36	Y36	Z36	X37	Y37	Z37	X38	Y38	Z38	X39	Y39	Z39	X40	Y40	Z40	X41	Y41	Z41	X42	Y42	Z42	X43	Y43	Z43	X44	Y44	Z44	X45	Y45	Z45	X46	Y46	Z46	X47	Y47	Z47	X48	Y48	Z48	X49	Y49	Z49	X50	Y50	Z50	X51	Y51	Z51	X52	Y52	Z52	X53	Y53	Z53	X54	Y54	Z54	X55	Y55	Z55	X56	Y56	Z56	X57	Y57	Z57	X58	Y58	Z58	X59	Y59	Z59	X60	Y60	Z60	X61	Y61	Z61	X62	Y62	Z62	X63	Y63	Z63	X64	Y64	Z64	X65	Y65	Z65	X66	Y66	Z66	

111	0.550	132.81630	762.27570	918.03210	128.54018	984.70343	918.63763	308.31186	912.52502	950.24475	307.48724	852.60895	953.46979	296.62711	882.47101	966.59985	1270.85339	-346.46637	26.31486	1226.41467	1876.94604	26.28985	323.06277	1019.71021	39.87033	128.14900	1043.33899	43.46481	165.00343	1113.78162	34.98393	140.17517	1079.97156	42.69413	326.26627	745.17688	45.85078	134.38434	736.48743	46.34345	169.96225	662.80914	33.44534	143.17348	698.06970	45.93328	276.66626	778.70105	72.95456	232.42322	829.16864	456.88437	218.83127	721.55176	453.95691	278.77600	701.00818	69.15828	290.10886	691.56128	209.67258	313.58151	691.33087	271.34964	263.22269	684.61481	268.21539	301.34402	687.20490	314.38214	275.16730	994.12079	68.37444	234.83411	935.41498	446.57361	220.03996	1041.29187	461.31683	284.65329	1068.56604	72.25869	256.70844	1082.74890	319.27377	307.16534	1077.23975	314.11203	276.30066	1081.35315	256.18048	240.87267	1060.17493	783.88678	241.85231	1066.36182	635.50769	190.68071	1066.64075	636.98236	218.28258	1070.24524	697.19934	237.66856	698.87518	778.88983	235.63805	694.80719	646.50732	185.10466	693.28564	637.39862	199.47415	689.43378	701.14850	130.75331	775.38837	1593.01086	241.44405	786.61829	1575.78857	252.75682	910.15186	1571.27356	262.65894	858.12579	1391.23145	284.67267	877.55292	1007.47369	140.12820	873.03760	1328.45728	244.17166	725.22498	1380.85193	236.31052	987.07123	1396.79785	165.39795	222.86734	1358.05713	206.03691	222.47479	1353.64014	152.12083	130.85097	1337.44934	241.86348	1500.91089	1389.07104	288.74637	1499.90515	1382.84851	236.38756	1591.11499	1391.30798	293.41232	1271.44727	1329.68884	255.05850	1272.04456	1296.19751	220.85976	454.23938	1300.16626	179.87424	466.95551	1277.84094	236.96564	506.24493	1353.83740	201.14618	536.76617	1371.51282	238.07549	585.43774	1362.44995	266.33881	1205.92578	1382.17334	256.94467	1144.24060	1383.88135	216.17143	1212.52991	1385.30725	227.43703	988.35342	453.94522	225.62724	775.36020	455.42064	277.72113	739.85461	71.05642	279.91029	1031.34341	70.31656 
112	0.555	132.80751	762.27588	918.04694	128.52753	984.69440	918.64087	308.29984	912.53027	950.23358	307.48407	852.61053	953.45557	296.61789	882.47705	966.59180	1270.85181	-346.45511	26.30689	1226.42090	1876.95227	26.30009	323.08047	1019.70685	39.87285	128.14915	1043.34192	43.46240	165.06447	1113.65417	34.81760	140.17677	1079.97302	42.69409	326.25601	745.17828	45.84429	134.38019	736.48688	46.34800	170.15306	662.85956	33.26948	143.17166	698.06140	45.92743	276.66452	778.71277	72.96362	232.41246	829.16455	456.89264	218.83939	721.54755	453.95493	278.78976	701.01166	69.15499	290.12140	691.53998	209.69102	313.56006	691.32379	271.38254	263.24350	684.60303	268.22311	301.34933	687.20667	314.37857	275.16437	994.11383	68.37584	234.82854	935.42133	446.56738	220.02443	1041.29443	461.32010	284.64755	1068.56873	72.26250	256.72504	1082.73779	319.26987	307.16095	1077.23755	314.10150	276.30084	1081.35510	256.18698	240.85324	1060.16858	783.88428	241.84587	1066.32837	635.49341	190.67213	1066.65112	636.99677	218.35899	1070.17041	697.09680	237.66164	698.86475	778.88477	235.74706	694.66827	646.71277	185.11885	693.27124	637.40039	199.42145	689.65125	701.14899	130.76567	775.40485	1593.01770	241.45259	786.63953	1575.76880	252.75882	910.16742	1571.25732	262.66498	858.14313	1391.23132	284.67178	877.54938	1007.47034	140.13406	873.04340	1328.44788	244.17752	725.23871	1380.84888	236.31567	987.08282	1396.78979	165.43919	222.87778	1358.08875	206.09042	222.47771	1353.67175	152.14508	130.78905	1337.60059	241.88515	1500.92029	1389.07373	288.76160	1499.90784	1382.84595	236.40514	1591.11389	1391.29358	293.41571	1271.46558	1329.67615	255.07616	1272.05786	1296.19458	220.89026	454.25488	1300.19067	179.91277	466.96118	1277.85913	236.98990	506.26056	1353.84680	201.17311	536.77496	1371.52698	238.10818	585.45313	1362.47070	266.35999	1205.93066	1382.15247	256.96265	1144.24744	1383.86694	216.16025	1212.53320	1385.31909	227.42648	988.35788	453.94374	225.62592	775.35605	455.42378	277.72714	739.86221	71.05931	279.90596	1031.34128	70.31917 
113	0.560	132.80650	762.25970	918.05109	128.52074	984.68903	918.63727	308.29892	912.52167	950.23389	307.47382	852.60809	953.44598	296.61417	882.45935	966.58551	1270.84839	-346.48630	26.30796	1226.41492	1876.96497	26.30774	323.06686	1019.70361	39.86450	128.14830	1043.35718	43.45906	165.06133	1113.66516	34.83651	140.17686	1079.97009	42.69479	326.26370	745.17004	45.85149	134.38702	736.49072	46.35163	170.03705	662.82867	33.37434	143.16342	698.06635	45.93219	276.66678	778.70789	72.96406	232.41531	829.15546	456.89703	218.83586	721.53223	453.95660	278.78259	701.01550	69.16196	290.11072	691.54358	209.68788	313.56967	691.30060	271.37927	263.23032	684.59302	268.21692	301.34515	687.20197	314.36646	275.17084	994.12073	68.38049	234.83781	935.40887	446.57785	220.02242	1041.28455	461.31345	284.64459	1068.56909	72.26791	256.72589	1082.73047	319.26724	307.16275	1077.23694	314.10095	276.27512	1081.36145	256.20151	240.83620	1060.16382	783.87939	241.99004	1065.99292	635.32495	190.67314	1066.65222	636.99524	218.35086	1070.17822	697.07208	237.65450	698.85254	778.89246	235.74600	694.64984	646.70221	185.10768	693.25610	637.40674	199.41551	689.64520	701.16113	130.80414	775.41779	1593.01404	241.45929	786.65356	1575.75391	252.76251	910.19910	1571.25330	262.67960	858.14880	1391.22803	284.66040	877.54871	1007.46448	140.13014	873.05450	1328.44910	244.19623	725.25586	1380.86121	236.31969	987.09338	1396.78027	165.47536	222.88670	1358.13184	206.13768	222.48665	1353.71533	152.20157	130.87723	1337.55286	241.90210	1500.93286	1389.07361	288.77368	1499.91907	1382.84558	236.42555	1591.12537	1391.30078	293.42749	1271.46423	1329.66687	255.08826	1272.06531	1296.18799	220.93253	454.27737	1300.20764	179.94884	466.96072	1277.88110	236.99565	506.27875	1353.86914	201.20642	536.79462	1371.53564	238.13284	585.46832	1362.47595	266.37680	1205.93542	1382.14465	256.98013	1144.25830	1383.86133	216.16199	1212.58655	1385.41125	227.43011	988.34671	453.94565	225.62559	775.34384	455.42682	277.72469	739.86169	71.06301	279.90771	1031.34491	70.32420 
114	0.565	132.80315	762.25604	918.04840	128.52338	984.67737	918.63629	308.28888	912.51520	950.22803	307.47638	852.59888	953.44666	296.61374	882.45599	966.57916	1270.85681	-346.47595	26.31721	1226.41614	1876.92981	26.30153	323.07535	1019.69629	39.86952	128.15785	1043.33435	43.46830	165.06277	1113.66943	34.83504	140.17554	1079.97144	42.69571	326.26456	745.18207	45.86087	134.38525	736.48895	46.34775	170.04044	662.83142	33.37814	143.17194	698.06158	45.93361	276.66910	778.70380	72.96809	232.41029	829.15186	456.89526	218.84253	721.51776	453.95248	278.78870	701.00854	69.16226	290.10760	691.54327	209.69511	313.57343	691.32690	271.37100	263.23511	684.59912	268.22214	301.34833	687.19122	314.37698	275.16785	994.10754	68.38274	234.83081	935.40729	446.57556	220.02730	1041.26624	461.30676	284.64771	1068.56689	72.26842	256.71161	1082.73901	319.28253	307.16660	1077.22852	314.10144	276.28619	1081.34351	256.18292	240.82416	1060.15576	783.88208	241.97504	1065.96716	635.31805	190.66869	1066.63684	636.99982	218.33423	1070.17712	697.07770	237.66133	698.85083	778.90143	235.58522	695.02887	646.49005	185.10394	693.24432	637.42035	199.40569	689.63477	701.16479	130.80051	775.44513	1593.03040	241.46263	786.68585	1575.76111	252.78081	910.21851	1571.25159	262.68002	858.17480	1391.23486	284.66577	877.54370	1007.45905	140.13539	873.05627	1328.43896	244.21941	725.26569	1380.88269	236.33067	987.10455	1396.77917	165.52370	222.89296	1358.16040	206.17239	222.49786	1353.76025	152.26239	130.86699	1337.59070	241.91811	1500.94165	1389.07263	288.77203	1499.93176	1382.83948	236.43900	1591.12512	1391.29199	293.42218	1271.47937	1329.66174	255.08339	1272.07788	1296.18286	220.96136	454.27411	1300.23022	179.98347	466.96771	1277.90076	237.01910	506.29880	1353.88879	201.20380	536.80994	1371.54688	238.21004	585.51196	1362.29822	266.40729	1205.94080	1382.12842	256.99966	1144.27271	1383.84729	216.22311	1212.54858	1385.32690	227.42905	988.33676	453.94116	225.62641	775.33481	455.42387	277.72890	739.85617	71.06517	279.90778	1031.33722	70.32558 
